<?xml version="1.0" encoding="UTF-8" standalone="no"?>
<svg
   width="36"
   height="39"
   fill="none"
   version="1.1"
   id="svg8"
   sodipodi:docname="convertapi-icon.svg"
   inkscape:version="1.1.2 (0a00cf5339, 2022-02-04)"
   xmlns:inkscape="http://www.inkscape.org/namespaces/inkscape"
   xmlns:sodipodi="http://sodipodi.sourceforge.net/DTD/sodipodi-0.dtd"
   xmlns="http://www.w3.org/2000/svg"
   xmlns:svg="http://www.w3.org/2000/svg">
  <defs
     id="defs12" />
  <sodipodi:namedview
     id="namedview10"
     pagecolor="#ffffff"
     bordercolor="#666666"
     borderopacity="1.0"
     inkscape:pageshadow="2"
     inkscape:pageopacity="0.0"
     inkscape:pagecheckerboard="0"
     showgrid="false"
     inkscape:zoom="16.512821"
     inkscape:cx="18.016304"
     inkscape:cy="19.5"
     inkscape:window-width="2560"
     inkscape:window-height="1369"
     inkscape:window-x="0"
     inkscape:window-y="1080"
     inkscape:window-maximized="1"
     inkscape:current-layer="svg8" />
  <path
     d="m 21.405284,24.597524 2.70637,2.706369 4.759476,-4.759476 c 0.746585,-0.746585 1.2132,-1.773139 1.2132,-2.893016 0,-1.119877 -0.466615,-2.053108 -1.2132,-2.893015 l -4.759476,-4.759477 -2.70637,2.706369 4.946123,4.946123 z"
     fill="#ff9750"
     id="path2"
     style="stroke-width:0.933231" />
  <path
     d="m 31.764146,25.06414 -6.625939,6.625938 c -1.493169,1.493169 -3.546277,2.333077 -5.599384,2.333077 -2.146431,0 -4.106216,-0.839908 -5.599385,-2.333077 L 7.5001464,25.250786 C 6.0069772,23.757617 5.1670695,21.704509 5.1670695,19.651401 c 0,-2.053108 0.8399077,-4.106215 2.3330769,-5.599384 L 13.939438,7.6127244 c 1.493169,-1.4931692 3.452954,-2.3330769 5.599385,-2.3330769 2.146431,0 4.106215,0.8399077 5.599384,2.3330769 L 31.670823,14.14534 34.377192,11.43897 27.844577,4.9063552 C 25.604823,2.6666014 22.618484,1.4534014 19.538823,1.4534014 c -3.079662,0 -6.066,1.2132 -8.305754,3.4529538 L 4.7937772,11.345647 c -2.2397538,2.239754 -3.4529538,5.226093 -3.4529538,8.305754 0,3.172985 1.2132,6.066 3.4529538,8.305754 l 6.4392918,6.439292 c 2.239754,2.239754 5.226092,3.452954 8.305754,3.452954 3.172984,0 6.159323,-1.2132 8.305754,-3.452954 l 6.625938,-6.625938 z"
     fill="#ff9750"
     id="path4"
     style="stroke-width:0.933231" />
  <path
     d="m 17.579038,14.705278 -2.706369,-2.706369 -4.759477,4.759477 c -0.7465836,0.746584 -1.2131995,1.773138 -1.2131995,2.893015 0,1.119877 0.4666159,2.146431 1.2131995,2.893016 l 4.759477,4.759476 2.706369,-2.706369 -4.946123,-4.946123 z"
     fill="#ff9750"
     id="path6"
     style="stroke-width:0.933231" />
</svg>
